<svg width="40" height="40" viewBox="0 0 40 40" fill="none" xmlns="http://www.w3.org/2000/svg">
<rect width="40" height="40" rx="20" fill="#6E963C"/>
<g clip-path="url(#clip0_596_18628)">
<path d="M27.6875 10.1228C27.9331 10.3013 28.0335 10.5394 27.9889 10.8371L25.1317 27.9799C25.0945 28.1957 24.9755 28.3631 24.7746 28.4821C24.6704 28.5417 24.5551 28.5714 24.4286 28.5714C24.3467 28.5714 24.2575 28.5528 24.1607 28.5156L19.1049 26.4509L16.404 29.7433C16.2701 29.9144 16.0878 30 15.8572 30C15.7604 30 15.6786 29.9851 15.6116 29.9554C15.4703 29.9033 15.3568 29.8158 15.2712 29.6931C15.1857 29.5703 15.1429 29.4345 15.1429 29.2857V25.3906L24.7857 13.5714L12.8549 23.8951L8.44645 22.0871C8.17115 21.9829 8.02234 21.7783 8.00002 21.4732C7.98514 21.1756 8.10419 20.9561 8.35716 20.8147L26.9286 10.1004C27.0402 10.0335 27.1592 10 27.2857 10C27.4345 10 27.5685 10.0409 27.6875 10.1228Z" fill="white"/>
</g>
<defs>
<clipPath id="clip0_596_18628">
<rect width="20" height="20" fill="white" transform="translate(8 10)"/>
</clipPath>
</defs>
</svg>
